<?xml version="1.0" encoding="utf-8"?>
<!-- Generator: Adobe Illustrator 18.1.1, SVG Export Plug-In . SVG Version: 6.00 Build 0)  -->
<svg version="1.1" id="Layer_1" xmlns="http://www.w3.org/2000/svg" xmlns:xlink="http://www.w3.org/1999/xlink" x="0px" y="0px"
	 viewBox="0 0 87 87" enable-background="new 0 0 87 87" xml:space="preserve">
<g>
	<path fill="#DF4926" d="M40.7,13.3c-0.6,0.4-1.1,1-1.7,1.5c-5.1,4.8-9.7,10-13.4,15.9c-3.6,5.7-6.4,12-7.6,18.6
		c-0.7,3.6-0.9,7.4-0.5,11.1c0.2,1.5,0.4,3.1,0.9,4.6c0.7,2.1,1.6,4.2,2.8,6.1c1.1,1.6,2.4,3.1,3.9,4.2c1.7,1.3,3.6,2.2,5.6,2.9
		c2.5,0.8,5.1,1.2,7.7,1.4c3.1,0.2,6.3,0.3,9.4-0.1c3.5-0.4,7-1.4,10.2-3.1c2.9-1.6,5.5-3.9,7.1-6.8c1.9-3.3,2.5-7.2,2.2-11
		c-0.3-4-1.6-7.9-3.3-11.5C62.8,44,61,41.1,59,38.2c-1.7-2.4-3.5-4.7-5.5-6.8l-0.1-0.1c0,1.8-0.1,3.6-0.7,5.3
		c-0.5,1.8-1.4,3.4-2.6,4.8c-0.1,0.1-0.1,0.2-0.2,0.2c-2.6-1.9-5-4.1-6.9-6.7c-2-2.7-3.3-5.8-3.8-9.1C38.6,21.7,39.2,17.3,40.7,13.3
		L40.7,13.3z"/>
	<path fill="#FFFFFF" d="M35.3,63.8c1.2-1,2.3-2.1,3.6-3c1.7-1.3,3.6-1.7,5.5-0.4c3.9,2.8,6.5,6.6,7.1,11.4c0.5,3.4-1.7,5.2-4.8,4
		c-2.4-0.8-4.5-0.7-6.8-0.1c-1.4,0.4-3.1,0.4-4.5,0.1c-3.1-0.6-4.2-2.6-3.1-5.5C33.1,68.1,33.2,66.1,35.3,63.8L35.3,63.8z"/>
	<path fill="#FFFFFF" d="M52.1,49.7c-0.4,2.4-0.8,4.7-2.5,6.4c-1.7,1.7-4.1,1.4-5.5-0.5c-2.1-3.1-0.8-9.3,2.4-11.2
		c1.6-1,3.4-0.7,4.2,1C51.6,46.6,52.2,48.6,52.1,49.7z"/>
	<path fill="#FFFFFF" d="M42.4,52.1c-0.1,0.6-0.2,1.6-0.5,2.6c-0.7,2.1-2.3,2.7-4.2,1.7c-0.7-0.4-1.5-1-1.9-1.7
		c-2-2.9-2.5-6.1-1.1-9.4c1.1-2.6,3.6-2.9,5.4-0.7C41.7,46.7,42.3,49.1,42.4,52.1z"/>
	<path fill="#FFFFFF" d="M57.4,59.4c-0.1,2.6-0.6,4.5-2,6.1c-2,2.1-5.3,1.5-6.3-1.2c-1.1-2.9,0.2-7.1,2.8-8.9
		c1.9-1.3,3.9-0.8,4.9,1.4C57.1,57.8,57.2,58.9,57.4,59.4z"/>
	<path fill="#FFFFFF" d="M34.3,63.3c-1.6,1.2-2.5,1.3-4.3,0.3c-2.8-1.5-4.5-5.6-3.6-8.7c0.8-2.9,3.3-3.7,5.6-1.7
		C34.6,55.6,36.1,60,34.3,63.3L34.3,63.3z"/>
</g>
</svg>
